<svg width="192" height="192" viewBox="0 0 192 192" fill="none" xmlns="http://www.w3.org/2000/svg">
  <rect width="192" height="192" rx="24" fill="#1f2937"/>
  <g transform="translate(48, 48)">
    <path d="M7 4V2a1 1 0 0 0-2 0v2H3a1 1 0 0 0-1 1v14a1 1 0 0 0 1 1h18a1 1 0 0 0 1-1V7a1 1 0 0 0-1-1h-2V4a1 1 0 0 0-2 0v2H7Z" fill="#ffffff" stroke="#ffffff" stroke-width="2"/>
    <path d="M3 10h18" stroke="#ffffff" stroke-width="2"/>
    <path d="M9 14h1" stroke="#ffffff" stroke-width="2"/>
    <path d="M13 14h1" stroke="#ffffff" stroke-width="2"/>
    <path d="M9 18h1" stroke="#ffffff" stroke-width="2"/>
    <path d="M13 18h1" stroke="#ffffff" stroke-width="2"/>
  </g>
  <text x="96" y="160" font-family="Arial, sans-serif" font-size="24" font-weight="bold" text-anchor="middle" fill="#ffffff">304</text>
</svg>